<?xml version="1.0" encoding="UTF-8" standalone="no"?>
<!-- Created with Inkscape (http://www.inkscape.org/) -->

<svg
   width="12.915689mm"
   height="12.625535mm"
   viewBox="0 0 12.915619 12.625466"
   version="1.1"
   id="svg26779"
   inkscape:version="1.2.2 (b0a84865, 2022-12-01)"
   sodipodi:docname="github-black.svg"
   xmlns:inkscape="http://www.inkscape.org/namespaces/inkscape"
   xmlns:sodipodi="http://sodipodi.sourceforge.net/DTD/sodipodi-0.dtd"
   xmlns="http://www.w3.org/2000/svg"
   xmlns:svg="http://www.w3.org/2000/svg">
  <sodipodi:namedview
     id="namedview26781"
     pagecolor="#ffffff"
     bordercolor="#000000"
     borderopacity="0.25"
     inkscape:showpageshadow="2"
     inkscape:pageopacity="0.0"
     inkscape:pagecheckerboard="0"
     inkscape:deskcolor="#d1d1d1"
     inkscape:document-units="mm"
     showgrid="false"
     inkscape:zoom="0.93806818"
     inkscape:cx="213.20412"
     inkscape:cy="553.7977"
     inkscape:window-width="1390"
     inkscape:window-height="1205"
     inkscape:window-x="1994"
     inkscape:window-y="171"
     inkscape:window-maximized="0"
     inkscape:current-layer="layer1" />
  <defs
     id="defs26776" />
  <g
     inkscape:label="Layer 1"
     inkscape:groupmode="layer"
     id="layer1"
     transform="translate(-2.0930698,-2.1044823)">
    <path
       style="fill:#000000;stroke:#000000;stroke-width:0.652999"
       d="M 5.9671571,14.115579 C 3.7443447,13.05426 2.4195693,10.985675 2.4195693,8.5761579 2.4195693,6.8668229 3.0156369,5.4240176 4.21814,4.2226453 5.1085958,3.3330282 6.1422892,2.7772921 7.3674721,2.5294966 8.1298574,2.3753022 9.5006249,2.422814 10.183575,2.6271035 c 2.274327,0.6803161 3.913234,2.452292 4.39028,4.7467432 0.158149,0.7606503 0.133624,1.9168869 -0.05603,2.6417543 -0.457722,1.749386 -1.64393,3.235491 -3.21338,4.025783 -0.627488,0.315971 -0.932021,0.406646 -1.046614,0.311631 -0.0695,-0.05762 -0.0987,-0.365428 -0.117848,-1.242004 -0.0221,-1.011884 -0.04451,-1.207115 -0.170116,-1.482124 L 9.8251986,11.312158 10.10728,11.265282 C 11.332748,11.06164 12.176121,10.334233 12.417853,9.2724225 12.633579,8.3248351 12.526456,7.4364596 12.123103,6.8280821 11.937066,6.5474813 11.927158,6.5021025 11.990699,6.2216666 12.061611,5.9086985 12.028509,5.4785128 11.902912,5.0808621 11.83183,4.8558101 11.826493,4.8532202 11.5168,4.8934668 11.344081,4.9159135 10.94905,5.0615848 10.638954,5.217183 L 10.075142,5.5000885 9.6482752,5.4215095 c -0.5477103,-0.1008244 -1.630433,-0.1008244 -2.1781433,0 L 7.043266,5.5000885 6.4794535,5.217183 C 6.1693562,5.0615848 5.7743258,4.9159125 5.6016074,4.8934668 5.291673,4.8531889 5.286656,4.8556353 5.2173387,5.080863 5.0928005,5.485515 5.0614031,5.9240212 5.1338457,6.2469684 5.200444,6.5438647 5.1926796,6.5785529 5.0002134,6.8439951 4.7250214,7.2235287 4.593656,7.7012088 4.5948615,8.3179655 4.5980801,9.963652 5.3758883,10.933138 6.9462608,11.248821 l 0.3527835,0.07092 -0.1324863,0.259451 c -0.072868,0.142698 -0.1324867,0.319426 -0.1324867,0.392732 0,0.106297 -0.075454,0.15015 -0.3727009,0.216608 -0.6175717,0.138077 -0.965601,-0.02854 -1.4815618,-0.709281 -0.2623354,-0.346117 -0.5599063,-0.515013 -0.9079209,-0.515318 -0.3885544,-3.12e-4 -0.384118,0.161744 0.013516,0.493811 0.1864319,0.155691 0.3981176,0.435373 0.5543673,0.732437 0.1778566,0.338144 0.3330561,0.533678 0.5236675,0.659762 0.2467838,0.163242 0.3301541,0.179192 0.9366318,0.179192 h 0.6657352 l 2.644e-4,0.624027 c 1.909e-4,0.547789 -0.015777,0.63259 -0.1308701,0.694128 -0.1829717,0.09783 -0.1713126,0.100944 -0.8680192,-0.23171 z"
       id="path20251" />
  </g>
</svg>
