<?xml version="1.0" encoding="UTF-8" standalone="no"?>
<!-- Created with Inkscape (http://www.inkscape.org/) -->

<svg
   width="11.813227mm"
   height="12.671122mm"
   viewBox="0 0 11.813338 12.671241"
   version="1.1"
   id="svg22982"
   sodipodi:docname="mastodon-black.svg"
   inkscape:version="1.2.2 (b0a84865, 2022-12-01)"
   xmlns:inkscape="http://www.inkscape.org/namespaces/inkscape"
   xmlns:sodipodi="http://sodipodi.sourceforge.net/DTD/sodipodi-0.dtd"
   xmlns="http://www.w3.org/2000/svg"
   xmlns:svg="http://www.w3.org/2000/svg">
  <sodipodi:namedview
     id="namedview22984"
     pagecolor="#ffffff"
     bordercolor="#000000"
     borderopacity="0.25"
     inkscape:showpageshadow="2"
     inkscape:pageopacity="0.0"
     inkscape:pagecheckerboard="0"
     inkscape:deskcolor="#d1d1d1"
     inkscape:document-units="mm"
     showgrid="false"
     inkscape:zoom="0.93806818"
     inkscape:cx="381.63537"
     inkscape:cy="555.92974"
     inkscape:window-width="1390"
     inkscape:window-height="1205"
     inkscape:window-x="1849"
     inkscape:window-y="100"
     inkscape:window-maximized="0"
     inkscape:current-layer="layer1" />
  <defs
     id="defs22979" />
  <g
     inkscape:label="Layer 1"
     inkscape:groupmode="layer"
     id="layer1"
     transform="translate(-2.3131823,-1.4579384)">
    <path
       style="fill:#000000;stroke:#000000;stroke-width:0.653003"
       d="M 6.3468567,13.688685 C 5.3870608,13.512847 4.825232,13.308008 4.3594645,12.964099 3.6914776,12.470876 3.2536886,11.747944 2.9765087,10.68039 2.7096417,9.6525561 2.6442661,8.9056556 2.6403442,6.8397685 2.6368467,4.9970744 2.6438656,4.8867041 2.7954212,4.4025675 2.9940932,3.7679085 3.1291439,3.5014242 3.4736441,3.0642885 3.97709,2.4254658 4.5675561,2.1439458 5.877625,1.9181289 6.7299429,1.771214 9.5723771,1.7498602 10.401445,1.8841433 c 0.709527,0.1149207 1.465462,0.3202288 1.789418,0.4859958 0.396174,0.2027204 0.91834,0.7776155 1.176615,1.2954312 0.400602,0.8031642 0.469165,1.2871359 0.420264,2.9665521 -0.07222,2.4801287 -0.214957,2.908495 -1.184623,3.5550666 -0.802861,0.535347 -1.467545,0.719835 -3.0697923,0.85204 -0.9993551,0.08246 -2.1382554,0.01937 -3.1493035,-0.17444 -0.2785192,-0.05339 -0.5334181,-0.09708 -0.5664427,-0.09709 -0.1039496,-1.9e-5 0.015756,0.685536 0.1763206,1.009789 0.1785159,0.360505 0.4665022,0.573072 0.9935573,0.733361 0.6575557,0.199977 2.6014039,0.141468 3.2208366,-0.09695 0.05627,-0.02166 0.08718,0.112036 0.103013,0.445598 l 0.02262,0.476542 -0.270078,0.102077 C 9.1211464,13.794421 7.514992,13.902692 6.3468557,13.688685 Z M 5.6540366,7.3307584 C 5.6775016,5.385006 5.7097209,5.2304606 6.1219682,5.086318 6.6074158,4.916581 7.0004529,5.0701325 7.1980824,5.5067345 7.3058493,5.7448123 7.3265699,5.9550165 7.3278155,6.822838 l 0.00151,1.0327722 H 7.9611812 8.5930413 L 8.6270996,6.7849579 C 8.6659951,5.5623621 8.744462,5.2954466 9.1171335,5.1180704 9.4013348,4.9828021 9.6439249,4.9825759 9.9037405,5.1173258 10.265745,5.3050892 10.300186,5.5016035 10.300186,7.3793664 v 1.695245 h 0.675198 0.675196 V 7.3939796 C 11.65058,5.6585261 11.5938,5.0919844 11.377178,4.666095 11.209011,4.335507 10.70868,3.9027057 10.380728,3.8041538 10.050937,3.7050486 9.471872,3.7020888 9.1283825,3.7977525 8.824327,3.8824343 8.3534845,4.2943803 8.1698591,4.6363763 8.0991567,4.7680586 8.0207209,4.8757984 7.9955586,4.8757984 7.9703973,4.8757984 7.871558,4.7418719 7.7759182,4.5781842 7.4116755,3.9547806 6.8776266,3.6876388 6.0977246,3.7387178 5.3183799,3.7897607 4.8589464,4.0966926 4.5477329,4.7742145 4.3983861,5.0993474 4.391372,5.1916933 4.371563,7.0937204 l -0.02063,1.9808914 h 0.6410385 0.6410376 z"
       id="path20249" />
  </g>
</svg>
