<?xml version="1.0" encoding="UTF-8" standalone="no"?>
<!-- Created with Inkscape (http://www.inkscape.org/) -->

<svg
   width="12.115343mm"
   height="12.20098mm"
   viewBox="0 0 12.115171 12.200806"
   version="1.1"
   id="svg29124"
   inkscape:version="1.2.2 (b0a84865, 2022-12-01)"
   sodipodi:docname="linkedin-black.svg"
   xmlns:inkscape="http://www.inkscape.org/namespaces/inkscape"
   xmlns:sodipodi="http://sodipodi.sourceforge.net/DTD/sodipodi-0.dtd"
   xmlns="http://www.w3.org/2000/svg"
   xmlns:svg="http://www.w3.org/2000/svg">
  <sodipodi:namedview
     id="namedview29126"
     pagecolor="#ffffff"
     bordercolor="#000000"
     borderopacity="0.25"
     inkscape:showpageshadow="2"
     inkscape:pageopacity="0.0"
     inkscape:pagecheckerboard="0"
     inkscape:deskcolor="#d1d1d1"
     inkscape:document-units="mm"
     showgrid="false"
     inkscape:zoom="0.93806818"
     inkscape:cx="208.94004"
     inkscape:cy="550.59964"
     inkscape:window-width="1390"
     inkscape:window-height="1205"
     inkscape:window-x="2233"
     inkscape:window-y="131"
     inkscape:window-maximized="0"
     inkscape:current-layer="layer1" />
  <defs
     id="defs29121" />
  <g
     inkscape:label="Layer 1"
     inkscape:groupmode="layer"
     id="layer1"
     transform="translate(-3.1286286,-2.9573936)">
    <path
       style="fill:#000000;stroke:#000000;stroke-width:0.652998"
       d="M 4.4018558,14.804545 C 4.0063874,14.657907 3.8201794,14.520959 3.6488776,14.250762 l -0.19375,-0.305605 V 9.0924367 c 0,-3.2641992 0.023544,-4.9150558 0.071926,-5.0431454 C 3.624932,3.7901545 3.916752,3.4896584 4.179908,3.3770277 4.3578824,3.3008543 5.2742955,3.2838926 9.2119123,3.2838926 h 4.8144007 l 0.277162,0.162477 c 0.161433,0.094635 0.347449,0.2852873 0.445494,0.4565971 L 14.9173,4.1970866 v 4.8814515 4.8814509 l -0.203806,0.29007 c -0.112094,0.159538 -0.309892,0.352409 -0.439552,0.428602 -0.23099,0.135738 -0.33192,0.138784 -5.003199,0.151014 -2.6220985,0.0069 -4.8130978,-0.0044 -4.8688872,-0.02513 z M 6.9039229,10.454156 V 7.6131084 H 6.0248185 5.1457137 v 2.8410476 2.841047 h 0.8791048 0.8791044 z m 2.7853114,1.099215 c 0.023384,-1.9339395 0.048682,-2.0559863 0.4808027,-2.319545 0.300647,-0.1833713 0.784527,-0.1767306 1.02705,0.014096 0.362992,0.2856165 0.397926,0.4769279 0.427163,2.33927 l 0.02681,1.708012 h 0.872355 0.872356 v -1.958347 c 0,-2.0739643 -0.04338,-2.4930117 -0.304986,-2.945842 C 12.725974,7.7595281 12.184199,7.4671653 11.372234,7.4636186 10.751095,7.4608955 10.320486,7.6217238 9.9300706,8.0022178 L 9.6764825,8.2493616 V 7.9312333 7.6131074 H 8.8311892 7.9858964 v 2.8410486 2.841047 H 8.8270336 9.6681708 Z M 6.4933752,6.8181864 C 7.3965524,6.3575054 7.1631046,4.9513991 6.1675564,4.8557107 5.7187237,4.8125703 5.5572009,4.8607039 5.2970644,5.1151129 4.440502,5.9528156 5.4295403,7.3608137 6.4933752,6.8181864 Z"
       id="path20255" />
  </g>
</svg>
