<svg role="img" viewBox="0 0 24 24" xmlns="http://www.w3.org/2000/svg" id="Linkedin--Streamline-Simple-Icons.svg" height="24" width="24"><desc>Linkedin Streamline Icon: https://streamlinehq.com</desc><title>LinkedIn</title><path d="M20.447 20.452h-3.554v-5.569c0 -1.328 -0.027 -3.037 -1.852 -3.037 -1.853 0 -2.136 1.445 -2.136 2.939v5.667H9.351V9h3.414v1.561h0.046c0.477 -0.9 1.637 -1.85 3.37 -1.85 3.601 0 4.267 2.37 4.267 5.455v6.286zM5.337 7.433c-1.144 0 -2.063 -0.926 -2.063 -2.065 0 -1.138 0.92 -2.063 2.063 -2.063 1.14 0 2.064 0.925 2.064 2.063 0 1.139 -0.925 2.065 -2.064 2.065zm1.782 13.019H3.555V9h3.564v11.452zM22.225 0H1.771C0.792 0 0 0.774 0 1.729v20.542C0 23.227 0.792 24 1.771 24h20.451C23.2 24 24 23.227 24 22.271V1.729C24 0.774 23.2 0 22.222 0h0.003z" fill="#000000" stroke-width="1"></path></svg>