<svg role="img" viewBox="0 0 24 24" xmlns="http://www.w3.org/2000/svg" id="Speakerdeck--Streamline-Simple-Icons.svg" height="24" width="24"><desc>Speakerdeck Streamline Icon: https://streamlinehq.com</desc><title>Speaker Deck</title><path d="M10.025 13.875H4.687a4.688 4.688 0 0 1 0 -9.375h6.227a1.875 1.875 0 0 1 0 3.75H4.592a0.937 0.937 0 1 0 0 1.875h5.337a4.687 4.687 0 1 1 0 9.375H1.875a1.875 1.875 0 0 1 0 -3.75h8.15a0.938 0.938 0 0 0 0 -1.875zM13.97 19.5a5.635 5.635 0 0 0 2.396 -3.75h3.026a0.93 0.93 0 0 0 0.921 -0.938V9.189a0.93 0.93 0 0 0 -0.921 -0.938h-5.497c0.438 -0.498 0.704 -1.155 0.704 -1.875s-0.266 -1.377 -0.704 -1.875h6.418C22.35 4.5 24 6.179 24 8.25v7.5c0 2.071 -1.65 3.75 -3.687 3.75H13.97z" fill="#000000" stroke-width="1"></path></svg>