<?xml version="1.0" encoding="UTF-8" standalone="no"?>
<!-- Created with Inkscape (http://www.inkscape.org/) -->

<svg
   width="14.49794mm"
   height="9.135438mm"
   viewBox="0 0 14.497983 9.1354654"
   version="1.1"
   id="svg33463"
   inkscape:version="1.2.2 (b0a84865, 2022-12-01)"
   sodipodi:docname="speakerdeck-black.svg"
   xmlns:inkscape="http://www.inkscape.org/namespaces/inkscape"
   xmlns:sodipodi="http://sodipodi.sourceforge.net/DTD/sodipodi-0.dtd"
   xmlns="http://www.w3.org/2000/svg"
   xmlns:svg="http://www.w3.org/2000/svg">
  <sodipodi:namedview
     id="namedview33465"
     pagecolor="#ffffff"
     bordercolor="#000000"
     borderopacity="0.25"
     inkscape:showpageshadow="2"
     inkscape:pageopacity="0.0"
     inkscape:pagecheckerboard="0"
     inkscape:deskcolor="#d1d1d1"
     inkscape:document-units="mm"
     showgrid="false"
     inkscape:zoom="0.93806818"
     inkscape:cx="207.87402"
     inkscape:cy="548.4676"
     inkscape:window-width="1390"
     inkscape:window-height="1205"
     inkscape:window-x="2396"
     inkscape:window-y="202"
     inkscape:window-maximized="0"
     inkscape:current-layer="layer1" />
  <defs
     id="defs33460" />
  <g
     inkscape:label="Layer 1"
     inkscape:groupmode="layer"
     id="layer1"
     transform="translate(-3.4428056,-3.445529)">
    <g
       id="g35065"
       transform="matrix(0.24135878,0,0,0.23619884,18.316521,-2.0476366)"
       style="stroke-width:4.18822">
      <path
         style="fill:#000000;stroke:#000000;stroke-width:2.73492"
         d="m -57.724366,60.035629 c -1.161251,-0.582232 -1.939351,-1.556351 -2.357213,-2.951046 -0.440373,-1.469832 0.269655,-3.35229 1.666481,-4.418253 l 1.010033,-0.77079 11.022478,-0.141025 c 6.062364,-0.07756 11.227403,-0.2432 11.477866,-0.368081 0.48533,-0.241985 1.095896,-1.372616 1.095896,-2.029354 0,-0.805053 -0.65828,-1.803516 -1.376331,-2.087589 -0.429323,-0.169847 -4.055401,-0.325594 -8.652245,-0.371628 l -7.913192,-0.07925 -2.151719,-1.063993 c -3.412421,-1.687396 -5.475224,-4.464944 -6.196534,-8.343592 -0.836644,-4.498825 1.76366,-9.336493 6.196661,-11.52842 l 2.151843,-1.063995 9.25382,-0.08799 c 9.006078,-0.08563 9.282113,-0.07191 10.310503,0.51268 1.66995,0.949283 2.184887,1.846305 2.184887,3.806079 0,2.0173 -0.560223,2.953962 -2.274948,3.803594 -1.071624,0.530979 -1.694172,0.568201 -9.503503,0.568201 -8.29691,0 -8.362124,0.0046 -9.10582,0.644316 -0.968254,0.832855 -1.04212,2.515841 -0.149638,3.409389 0.576318,0.577006 0.917189,0.60616 8.842309,0.756285 9.173027,0.173763 9.642371,0.259559 12.265474,2.242103 2.952896,2.231803 4.438097,5.204748 4.438097,8.883806 0,3.679055 -1.485201,6.652003 -4.438097,8.883803 -2.791973,2.110177 -2.68723,2.095379 -15.445671,2.182344 -10.153578,0.06921 -11.52625,0.02612 -12.351437,-0.387598 z"
         id="path33093" />
      <path
         style="fill:#000000;stroke:#000000;stroke-width:2.73492"
         d="m -25.09736,59.506393 c 1.578591,-1.426162 3.00343,-3.673525 3.727569,-5.879398 l 0.61469,-1.87248 h 3.893307 c 3.708977,0 3.930774,-0.03223 4.684675,-0.680707 l 0.791369,-0.680707 v -7.805253 -7.805251 l -0.791369,-0.680709 c -0.788945,-0.678622 -0.812054,-0.680707 -7.550602,-0.680707 h -6.759236 l 0.63197,-1.198719 c 0.889839,-1.687835 0.88618,-4.665059 -0.0078,-6.361474 l -0.639789,-1.214041 8.545602,0.08584 c 8.0341657,0.0807 8.6236257,0.121912 9.8493556,0.688671 1.871337,0.865277 3.4964978,2.449211 4.3993831,4.287779 l 0.7840398,1.596565 v 11.28205 11.282053 l -0.7840398,1.596562 c -0.9028853,1.838568 -2.5280461,3.422501 -4.3993831,4.287779 -1.2239255,0.565925 -1.8186453,0.608105 -9.7128146,0.688909 l -8.409059,0.08607 z"
         id="path33095" />
    </g>
  </g>
</svg>
