<?xml version="1.0" encoding="UTF-8" standalone="no"?>
<!-- Created with Inkscape (http://www.inkscape.org/) -->

<svg
   width="53.611458"
   height="44.974903"
   viewBox="0 0 14.184529 11.899467"
   version="1.1"
   id="svg20260"
   inkscape:version="1.2.2 (b0a84865, 2022-12-01)"
   sodipodi:docname="twitter-black.svg"
   xmlns:inkscape="http://www.inkscape.org/namespaces/inkscape"
   xmlns:sodipodi="http://sodipodi.sourceforge.net/DTD/sodipodi-0.dtd"
   xmlns="http://www.w3.org/2000/svg"
   xmlns:svg="http://www.w3.org/2000/svg">
  <sodipodi:namedview
     id="namedview20262"
     pagecolor="#ffffff"
     bordercolor="#000000"
     borderopacity="0.25"
     inkscape:showpageshadow="2"
     inkscape:pageopacity="0.0"
     inkscape:pagecheckerboard="0"
     inkscape:deskcolor="#d1d1d1"
     inkscape:document-units="mm"
     showgrid="false"
     inkscape:zoom="0.93806818"
     inkscape:cx="215.33616"
     inkscape:cy="554.86372"
     inkscape:window-width="1390"
     inkscape:window-height="1205"
     inkscape:window-x="1663"
     inkscape:window-y="118"
     inkscape:window-maximized="0"
     inkscape:current-layer="layer1" />
  <defs
     id="defs20257" />
  <g
     inkscape:label="Layer 1"
     inkscape:groupmode="layer"
     id="layer1"
     transform="translate(-1.532467,-1.6880714)">
    <path
       style="fill:#000000;stroke:#000000;stroke-width:0.653"
       d="M 4.4919652,13.156757 C 3.779876,13.028971 2.8732128,12.723005 2.2133831,12.387817 l -0.533044,-0.270779 0.4788998,-0.0058 C 2.7822215,12.10378 3.5373602,11.965772 4.1751897,11.742873 4.6956181,11.561001 5.5224283,11.112267 5.6760703,10.928298 5.7483361,10.84177 5.721948,10.820036 5.4994555,10.782836 4.8150593,10.668409 4.3539973,10.448572 3.8857411,10.013408 3.5894134,9.7380206 3.153779,9.1162244 3.151887,8.9659496 3.1514019,8.9379042 3.3590523,8.9119115 3.6130412,8.9081849 3.86703,8.9044767 4.1518046,8.8780756 4.245874,8.8495575 4.4064799,8.8008685 4.4085659,8.7945851 4.2800797,8.7465016 2.9506403,8.2489724 2.2722498,7.4948196 2.0971558,6.3197895 L 2.0498178,6.0021097 2.3782749,6.1261303 c 0.3492153,0.131859 0.9782134,0.2479436 0.9782134,0.1805343 0,-0.022171 -0.1368424,-0.1656558 -0.304092,-0.3188547 C 2.2537571,5.2562699 1.9225639,4.0960133 2.2273933,3.0976003 2.4087381,2.5036421 2.3936266,2.5025974 3.0760047,3.1562841 3.679306,3.7342182 4.4821682,4.307009 5.1694654,4.6498336 5.9737226,5.0509985 7.2838807,5.4092487 8.1306003,5.4595279 l 0.2929802,0.017398 0.014895,-0.7131118 C 8.4521559,4.108632 8.4718529,4.0133958 8.6809894,3.5914614 8.9706392,3.0071021 9.4522895,2.5284959 10.040341,2.240703 c 0.434975,-0.2128771 0.504618,-0.2261983 1.182174,-0.2261315 0.855978,6.39e-5 1.304779,0.1460601 1.811328,0.5891432 l 0.318675,0.2787485 0.437897,-0.1177893 c 0.240845,-0.064785 0.62674,-0.2065381 0.85755,-0.3150083 0.230808,-0.1084701 0.434204,-0.1972186 0.451985,-0.1972186 0.01778,0 -0.05054,0.1513145 -0.151832,0.336254 -0.199779,0.3647566 -0.474786,0.6816767 -0.850586,0.9802244 l -0.23945,0.1902271 0.339198,-0.045798 c 0.186557,-0.025189 0.523887,-0.1029191 0.74962,-0.1727343 0.225731,-0.069815 0.42382,-0.1136211 0.440197,-0.097348 0.05276,0.052431 -0.577597,0.7382981 -0.936238,1.0186825 l -0.34784,0.2719392 -0.0027,0.5519702 c -0.01186,2.3853809 -1.325648,4.9551439 -3.283133,6.4217809 -0.9283745,0.695582 -2.2297375,1.241551 -3.4727821,1.456961 -0.7262405,0.12585 -2.128882,0.121994 -2.852386,-0.0078 z"
       id="path20253" />
  </g>
</svg>
